<svg xmlns="http://www.w3.org/2000/svg" viewBox="0 0 800 500" width="800" height="500" role="img" aria-label="event flash-sale offer">
  <defs>
    <filter id="blurLg" x="-80%" y="-80%" width="260%" height="260%">
      <feGaussianBlur stdDeviation="60"/>
    </filter>
    <filter id="blurSm" x="-60%" y="-60%" width="220%" height="220%">
      <feGaussianBlur stdDeviation="9"/>
    </filter>
    <filter id="blurRays" x="-60%" y="-60%" width="220%" height="220%">
      <feGaussianBlur stdDeviation="7"/>
    </filter>
</defs>
  <rect width="800" height="500" fill="#1c1fd6"/>
    <ellipse cx="660" cy="369" rx="263" ry="187" fill="#2f31e0" fill-opacity="0.55" filter="url(#blurLg)" transform="rotate(8 660 369)"/>
    <line x1="26" y1="40" x2="96" y2="26" stroke="#ffcc00" stroke-opacity="0.8" stroke-width="5" stroke-linecap="round"/>
    <line x1="46" y1="52" x2="86" y2="38" stroke="#ffcc00" stroke-opacity="0.8" stroke-width="5" stroke-linecap="round"/>
    <line x1="26" y1="452" x2="96" y2="438" stroke="#ffcc00" stroke-opacity="0.8" stroke-width="5" stroke-linecap="round"/>
    <line x1="46" y1="440" x2="86" y2="426" stroke="#ffcc00" stroke-opacity="0.8" stroke-width="5" stroke-linecap="round"/>
  <ellipse cx="712" cy="96" rx="48" ry="44" fill="#000" fill-opacity="0.18" filter="url(#blurSm)"/>
  <circle cx="710" cy="90" r="44" fill="#b91c1c"/>
  <circle cx="710" cy="90" r="44" fill="none" stroke="#ffffff" stroke-width="3.5"/>
  <g transform="translate(710,90) scale(1.85) translate(-12,-12)" fill="none" stroke="#ffffff" stroke-width="2"
     stroke-linecap="round" stroke-linejoin="round" color="#ffffff">
    <path d="M15.914 4a1.5 1.5 0 00-2.474-1.561l-9 9A1.5 1.5 0 005.5 14h4.002a.5.5 0 01.471.666L8.086 20a1.5 1.5 0 002.475 1.56l9-9A1.5 1.5 0 0018.5 10h-3.997a.5.5 0 01-.472-.667z" />
  </g>
</svg>
