<svg xmlns="http://www.w3.org/2000/svg" viewBox="0 0 800 500" width="800" height="500" role="img" aria-label="restaurant combo offer">
  <defs>
    <filter id="blurLg" x="-80%" y="-80%" width="260%" height="260%">
      <feGaussianBlur stdDeviation="60"/>
    </filter>
    <filter id="blurSm" x="-60%" y="-60%" width="220%" height="220%">
      <feGaussianBlur stdDeviation="9"/>
    </filter>
    <filter id="blurRays" x="-60%" y="-60%" width="220%" height="220%">
      <feGaussianBlur stdDeviation="7"/>
    </filter>
</defs>
  <radialGradient id="burst-restaurant" cx="50%" cy="46%" r="72%">
      <stop offset="0%" stop-color="#eaf9ff"/>
      <stop offset="55%" stop-color="#4fc3f7"/>
      <stop offset="100%" stop-color="#0288d1"/>
    </radialGradient>
    <rect width="800" height="500" fill="url(#burst-restaurant)"/>
    <polygon points="400.0,240.0 919,209 919,271" fill="#ffffff" fill-opacity="0.5"/>
    <polygon points="400.0,240.0 768,336 754,379" fill="#ffffff" fill-opacity="0.5"/>
    <polygon points="400.0,240.0 838,520 802,570" fill="#ec4899" fill-opacity="0.32"/>
    <polygon points="400.0,240.0 641,534 605,560" fill="#ffffff" fill-opacity="0.5"/>
    <polygon points="400.0,240.0 590,724 531,743" fill="#ffffff" fill-opacity="0.5"/>
    <polygon points="400.0,240.0 423,619 377,619" fill="#ffffff" fill-opacity="0.5"/>
    <polygon points="400.0,240.0 269,743 210,724" fill="#ec4899" fill-opacity="0.32"/>
    <polygon points="400.0,240.0 195,560 159,534" fill="#ffffff" fill-opacity="0.5"/>
    <polygon points="400.0,240.0 -2,570 -38,520" fill="#ffffff" fill-opacity="0.5"/>
    <polygon points="400.0,240.0 46,379 32,336" fill="#ffffff" fill-opacity="0.5"/>
    <polygon points="400.0,240.0 -119,271 -119,209" fill="#ec4899" fill-opacity="0.32"/>
    <polygon points="400.0,240.0 32,144 46,101" fill="#ffffff" fill-opacity="0.5"/>
    <polygon points="400.0,240.0 -38,-40 -2,-90" fill="#ffffff" fill-opacity="0.5"/>
    <polygon points="400.0,240.0 159,-54 195,-80" fill="#ffffff" fill-opacity="0.5"/>
    <polygon points="400.0,240.0 210,-244 269,-263" fill="#ec4899" fill-opacity="0.32"/>
    <polygon points="400.0,240.0 377,-139 423,-139" fill="#ffffff" fill-opacity="0.5"/>
    <polygon points="400.0,240.0 531,-263 590,-244" fill="#ffffff" fill-opacity="0.5"/>
    <polygon points="400.0,240.0 605,-80 641,-54" fill="#ffffff" fill-opacity="0.5"/>
    <polygon points="400.0,240.0 802,-90 838,-40" fill="#ec4899" fill-opacity="0.32"/>
    <polygon points="400.0,240.0 754,101 768,144" fill="#ffffff" fill-opacity="0.5"/>
    <circle cx="541" cy="80" r="9" fill="#ec4899" fill-opacity="0.88"/>
    <circle cx="548" cy="450" r="6" fill="#a5f3fc" fill-opacity="0.95"/>
    <circle cx="184" cy="318" r="7" fill="#ffffff" fill-opacity="0.91"/>
    <circle cx="595" cy="271" r="5" fill="#ffd23f" fill-opacity="0.79"/>
    <circle cx="160" cy="162" r="5" fill="#ffd23f" fill-opacity="0.94"/>
    <circle cx="388" cy="38" r="4" fill="#ffd23f" fill-opacity="0.96"/>
    <circle cx="74" cy="415" r="4" fill="#ec4899" fill-opacity="0.92"/>
    <circle cx="196" cy="83" r="5" fill="#ffd23f" fill-opacity="0.82"/>
    <circle cx="613" cy="347" r="9" fill="#ffffff" fill-opacity="0.96"/>
    <circle cx="624" cy="474" r="6" fill="#a5f3fc" fill-opacity="0.88"/>
    <circle cx="741" cy="398" r="6" fill="#a5f3fc" fill-opacity="0.78"/>
    <circle cx="634" cy="25" r="7" fill="#ec4899" fill-opacity="0.98"/>
    <circle cx="185" cy="443" r="4" fill="#ffffff" fill-opacity="0.89"/>
    <circle cx="150" cy="73" r="9" fill="#ffffff" fill-opacity="0.81"/>
    <circle cx="584" cy="144" r="6" fill="#a5f3fc" fill-opacity="1.0"/>
    <circle cx="735" cy="441" r="6" fill="#a5f3fc" fill-opacity="0.71"/>
  <ellipse cx="712" cy="96" rx="48" ry="44" fill="#000" fill-opacity="0.18" filter="url(#blurSm)"/>
  <circle cx="710" cy="90" r="44" fill="#6d28d9"/>
  <circle cx="710" cy="90" r="44" fill="none" stroke="#ffffff" stroke-width="3.5"/>
  <g transform="translate(710,90) scale(1.85) translate(-12,-12)" fill="none" stroke="#ffffff" stroke-width="2"
     stroke-linecap="round" stroke-linejoin="round" color="#ffffff">
    <path d="M11 21.73a2 2 0 0 0 2 0l7-4A2 2 0 0 0 21 16V8a2 2 0 0 0-1-1.73l-7-4a2 2 0 0 0-2 0l-7 4A2 2 0 0 0 3 8v8a2 2 0 0 0 1 1.73z" />
  <path d="M12 22V12" />
  <polyline points="3.29 7 12 12 20.71 7" />
  <path d="m7.5 4.27 9 5.15" />
  </g>
</svg>
