<svg xmlns="http://www.w3.org/2000/svg" viewBox="0 0 800 500" width="800" height="500" role="img" aria-label="food discount offer">
  <defs>
    <filter id="blurLg" x="-80%" y="-80%" width="260%" height="260%">
      <feGaussianBlur stdDeviation="60"/>
    </filter>
    <filter id="blurSm" x="-60%" y="-60%" width="220%" height="220%">
      <feGaussianBlur stdDeviation="9"/>
    </filter>
    <filter id="blurRays" x="-60%" y="-60%" width="220%" height="220%">
      <feGaussianBlur stdDeviation="7"/>
    </filter>
</defs>
  <rect width="800" height="500" fill="#c81e4a"/>
    <ellipse cx="444" cy="248" rx="238" ry="161" fill="#e0325f" fill-opacity="0.55" filter="url(#blurLg)" transform="rotate(-9 444 248)"/>
    <line x1="26" y1="40" x2="96" y2="26" stroke="#ffcf5c" stroke-opacity="0.8" stroke-width="5" stroke-linecap="round"/>
    <line x1="46" y1="52" x2="86" y2="38" stroke="#ffcf5c" stroke-opacity="0.8" stroke-width="5" stroke-linecap="round"/>
    <line x1="26" y1="452" x2="96" y2="438" stroke="#ffcf5c" stroke-opacity="0.8" stroke-width="5" stroke-linecap="round"/>
    <line x1="46" y1="440" x2="86" y2="426" stroke="#ffcf5c" stroke-opacity="0.8" stroke-width="5" stroke-linecap="round"/>
  <ellipse cx="712" cy="96" rx="48" ry="44" fill="#000" fill-opacity="0.18" filter="url(#blurSm)"/>
  <circle cx="710" cy="90" r="44" fill="#b45309"/>
  <circle cx="710" cy="90" r="44" fill="none" stroke="#ffffff" stroke-width="3.5"/>
  <g transform="translate(710,90) scale(1.85) translate(-12,-12)" fill="none" stroke="#ffffff" stroke-width="2"
     stroke-linecap="round" stroke-linejoin="round" color="#ffffff">
    <path d="M3.85 8.62a4 4 0 0 1 4.78-4.77 4 4 0 0 1 6.74 0 4 4 0 0 1 4.78 4.78 4 4 0 0 1 0 6.74 4 4 0 0 1-4.77 4.78 4 4 0 0 1-6.75 0 4 4 0 0 1-4.78-4.77 4 4 0 0 1 0-6.76Z" />
  <path d="m15 9-6 6" />
  <path d="M9 9h.01" />
  <path d="M15 15h.01" />
  </g>
</svg>
